<svg width="800" height="450" viewBox="0 0 800 450" xmlns="http://www.w3.org/2000/svg">
  <rect width="800" height="450" fill="#fef6ee"/>
  <!-- Navbar -->
  <rect x="0" y="0" width="800" height="52" fill="#fde8d0"/>
  <rect x="32" y="18" width="80" height="16" rx="4" fill="#f5c99a"/>
  <rect x="580" y="18" width="60" height="16" rx="4" fill="#f5c99a"/>
  <rect x="654" y="18" width="60" height="16" rx="4" fill="#f5c99a"/>
  <rect x="728" y="14" width="40" height="24" rx="6" fill="#b5976a"/>
  <!-- Hero banner -->
  <rect x="24" y="68" width="500" height="130" rx="10" fill="#fde8d0"/>
  <rect x="44" y="88" width="200" height="22" rx="4" fill="#f5c99a"/>
  <rect x="44" y="118" width="280" height="14" rx="3" fill="#fce4c4"/>
  <rect x="44" y="138" width="240" height="14" rx="3" fill="#fce4c4"/>
  <rect x="44" y="166" width="100" height="28" rx="6" fill="#b5976a"/>
  <!-- Product cards -->
  <rect x="24" y="218" width="232" height="200" rx="10" fill="#fff"/>
  <rect x="24" y="218" width="232" height="110" rx="10" fill="#fde8d0"/>
  <rect x="80" y="248" width="120" height="50" rx="6" fill="#f5c99a"/>
  <rect x="36" y="340" width="120" height="14" rx="3" fill="#ddd8cc"/>
  <rect x="36" y="362" width="70" height="14" rx="3" fill="#b5976a"/>
  <rect x="168" y="356" width="72" height="24" rx="6" fill="#2c2820"/>

  <rect x="284" y="218" width="232" height="200" rx="10" fill="#fff"/>
  <rect x="284" y="218" width="232" height="110" rx="10" fill="#fde8d0"/>
  <rect x="340" y="248" width="120" height="50" rx="6" fill="#f5c99a"/>
  <rect x="296" y="340" width="120" height="14" rx="3" fill="#ddd8cc"/>
  <rect x="296" y="362" width="70" height="14" rx="3" fill="#b5976a"/>
  <rect x="428" y="356" width="72" height="24" rx="6" fill="#2c2820"/>

  <rect x="544" y="218" width="232" height="200" rx="10" fill="#fff"/>
  <rect x="544" y="218" width="232" height="110" rx="10" fill="#fde8d0"/>
  <rect x="600" y="248" width="120" height="50" rx="6" fill="#f5c99a"/>
  <rect x="556" y="340" width="120" height="14" rx="3" fill="#ddd8cc"/>
  <rect x="556" y="362" width="70" height="14" rx="3" fill="#b5976a"/>
  <rect x="688" y="356" width="72" height="24" rx="6" fill="#2c2820"/>

  <!-- Sidebar -->
  <rect x="540" y="68" width="236" height="130" rx="10" fill="#fff"/>
  <rect x="556" y="84" width="100" height="14" rx="3" fill="#ddd8cc"/>
  <rect x="556" y="106" width="200" height="10" rx="3" fill="#f4f1eb"/>
  <rect x="556" y="122" width="200" height="10" rx="3" fill="#f4f1eb"/>
  <rect x="556" y="138" width="150" height="10" rx="3" fill="#f4f1eb"/>
  <rect x="556" y="162" width="80" height="24" rx="6" fill="#b5976a"/>
</svg>
